<svg id="Layer_1" data-name="Layer 1" xmlns="http://www.w3.org/2000/svg" viewBox="0 0 175.03 140.35"><defs><style>.cls-1{fill:#5affe7;}.cls-2{fill:#726eff;}</style></defs><title>cart</title><path class="cls-1" d="M85.42,159.9a8.74,8.74,0,0,0,2.3.31,8.63,8.63,0,0,0,8.63-8.63,8.38,8.38,0,0,0-.25-2,15.08,15.08,0,0,1-3.85,6.07,15.76,15.76,0,0,1-6.83,4.26Zm56.81,0a8.61,8.61,0,0,0,11-8.28,8.24,8.24,0,0,0-.35-2.4,14.84,14.84,0,0,1-4,6.46,16.06,16.06,0,0,1-6.72,4.22Z" transform="translate(-12.49 -29.82)"/><path class="cls-2" d="M144.65,133a18.6,18.6,0,1,0,18.6,18.59A18.61,18.61,0,0,0,144.65,133Zm0,10a8.65,8.65,0,0,1,8.29,6.23,9,9,0,0,1,.35,2.4,8.63,8.63,0,0,1-8.64,8.63,7.92,7.92,0,0,1-2.4-.35,8.63,8.63,0,0,1,2.4-16.91ZM87.72,133a18.6,18.6,0,1,0,18.59,18.59A18.61,18.61,0,0,0,87.72,133Zm0,10a8.63,8.63,0,0,1,8.38,6.62,8.26,8.26,0,0,1,.25,2,8.63,8.63,0,0,1-8.63,8.63,8.74,8.74,0,0,1-2.3-.31A8.63,8.63,0,0,1,87.72,143Z" transform="translate(-12.49 -29.82)"/><path class="cls-1" d="M163.44,111.31l14.1-54.65-.09-5.12,0,5-21.55-.07c-2.71,8.71-8.06,26-11.23,37-2.18,7.56-4.08,17.75-8.55,22.19h21.82a5.68,5.68,0,0,0,5.52-4.3Z" transform="translate(-12.49 -29.82)"/><path class="cls-2" d="M106.86,56.29h2.31a5,5,0,0,0,0-10h-2.31a5,5,0,0,0,0,10Z" transform="translate(-12.49 -29.82)"/><path class="cls-2" d="M185.4,50.47a10.17,10.17,0,0,0-7.93-3.93l-50.82-.17h0a5,5,0,0,0,0,10l29.29.1,21.55.07,0-5,.09,5.12-14.1,54.65a5.68,5.68,0,0,1-5.52,4.3H76.76a5.67,5.67,0,0,1-5.48-4.16L62.45,56.27l27-.06a5,5,0,0,0,0-10l-28.55.06L59.6,38.4c0-.14-.06-.27-.08-.41a10.71,10.71,0,0,0-10.41-8.17H17.47a5,5,0,0,0,0,10H49.11a.77.77,0,0,1,.7.46l11.66,73a2.06,2.06,0,0,0,.08.39,15.64,15.64,0,0,0,15.21,11.94h81.16a15.62,15.62,0,0,0,15.17-11.82l14.1-54.65A10,10,0,0,0,185.4,50.47Z" transform="translate(-12.49 -29.82)"/></svg>