<?xml version="1.0" encoding="utf-8"?>
<!-- Generator: Adobe Illustrator 24.0.1, SVG Export Plug-In . SVG Version: 6.00 Build 0)  -->
<svg version="1.1" id="Layer_1" xmlns="http://www.w3.org/2000/svg" xmlns:xlink="http://www.w3.org/1999/xlink" x="0px" y="0px"
	 viewBox="0 0 200 200" style="enable-background:new 0 0 200 200;" xml:space="preserve">
<style type="text/css">
	.st0{fill:#726EFF;}
	.st1{fill:#FFFFFF;stroke:#FFFFFF;stroke-width:4.8969;stroke-miterlimit:10;}
</style>
<circle class="st0" cx="100" cy="100" r="98.2"/>
<title>menu_icon_hover</title>
<path class="st1" d="M161.6,55.9H42.9c-3.1,0-5.5-2.5-5.5-5.5c0-3.1,2.5-5.5,5.5-5.5h118.7c3.1,0,5.5,2.5,5.5,5.5
	C167.2,53.5,164.7,55.9,161.6,55.9z M161.6,159.8H42.9c-3.1,0-5.5-2.5-5.5-5.5s2.5-5.5,5.5-5.5h118.7c3.1,0,5.5,2.5,5.5,5.5
	S164.7,159.8,161.6,159.8z M131.9,107.8h-89c-3.1,0-5.5-2.5-5.5-5.6c0-3.1,2.5-5.5,5.5-5.5h89c3.1,0,5.6,2.5,5.6,5.5
	C137.5,105.4,135,107.8,131.9,107.8C131.9,107.8,131.9,107.8,131.9,107.8z"/>
</svg>
