<svg id="Layer_1" data-name="Layer 1" xmlns="http://www.w3.org/2000/svg" viewBox="0 0 4640.49 243"><defs><style>.cls-1{fill:#726eff;}</style></defs><title>spacer_pattern</title><polygon class="cls-1" points="77.26 0 0 77.26 0 13.53 13.53 0 77.26 0"/><polygon class="cls-1" points="222.26 0 0 222.26 0 158.53 158.53 0 222.26 0"/><polygon class="cls-1" points="367.26 0 124.26 243 60.53 243 303.53 0 367.26 0"/><polygon class="cls-1" points="512.26 0 269.26 243 205.53 243 448.53 0 512.26 0"/><polygon class="cls-1" points="657.26 0 414.26 243 350.53 243 593.53 0 657.26 0"/><polygon class="cls-1" points="802.26 0 559.26 243 495.53 243 738.53 0 802.26 0"/><polygon class="cls-1" points="947.26 0 704.26 243 640.53 243 883.53 0 947.26 0"/><polygon class="cls-1" points="1092.26 0 849.26 243 785.53 243 1028.53 0 1092.26 0"/><polygon class="cls-1" points="1237.26 0 994.26 243 930.53 243 1173.53 0 1237.26 0"/><polygon class="cls-1" points="1382.26 0 1139.26 243 1075.53 243 1318.53 0 1382.26 0"/><polygon class="cls-1" points="1527.26 0 1284.26 243 1220.53 243 1463.53 0 1527.26 0"/><polygon class="cls-1" points="1672.26 0 1429.26 243 1365.53 243 1608.53 0 1672.26 0"/><polygon class="cls-1" points="1817.26 0 1574.26 243 1510.53 243 1753.53 0 1817.26 0"/><polygon class="cls-1" points="1962.26 0 1719.26 243 1655.53 243 1898.53 0 1962.26 0"/><polygon class="cls-1" points="2107.26 0 1864.26 243 1800.53 243 2043.53 0 2107.26 0"/><polygon class="cls-1" points="2252.26 0 2009.26 243 1945.53 243 2188.53 0 2252.26 0"/><polygon class="cls-1" points="2397.26 0 2154.26 243 2090.53 243 2333.53 0 2397.26 0"/><polygon class="cls-1" points="2542.26 0 2299.26 243 2235.53 243 2478.53 0 2542.26 0"/><polygon class="cls-1" points="2687.26 0 2444.26 243 2380.53 243 2623.53 0 2687.26 0"/><polygon class="cls-1" points="2832.26 0 2589.26 243 2525.53 243 2768.53 0 2832.26 0"/><polygon class="cls-1" points="2977.26 0 2734.26 243 2670.53 243 2913.53 0 2977.26 0"/><polygon class="cls-1" points="3122.26 0 2879.26 243 2815.53 243 3058.53 0 3122.26 0"/><polygon class="cls-1" points="3267.26 0 3024.26 243 2960.53 243 3203.53 0 3267.26 0"/><polygon class="cls-1" points="3412.26 0 3169.26 243 3105.53 243 3348.53 0 3412.26 0"/><polygon class="cls-1" points="3557.26 0 3314.26 243 3250.53 243 3493.53 0 3557.26 0"/><polygon class="cls-1" points="3702.26 0 3459.26 243 3395.53 243 3638.53 0 3702.26 0"/><polygon class="cls-1" points="3847.26 0 3604.26 243 3540.53 243 3783.53 0 3847.26 0"/><polygon class="cls-1" points="3992.26 0 3749.26 243 3685.53 243 3928.53 0 3992.26 0"/><polygon class="cls-1" points="4137.26 0 3894.26 243 3830.53 243 4073.53 0 4137.26 0"/><polygon class="cls-1" points="4282.26 0 4039.26 243 3975.53 243 4218.53 0 4282.26 0"/><polygon class="cls-1" points="4427.26 0 4184.26 243 4120.53 243 4363.53 0 4427.26 0"/><polygon class="cls-1" points="4572.26 0 4329.26 243 4265.53 243 4508.53 0 4572.26 0"/><polygon class="cls-1" points="4640.49 13.04 4640.49 76.77 4474.26 243 4410.53 243 4640.49 13.04"/><polygon class="cls-1" points="4640.49 158.04 4640.49 221.77 4619.26 243 4555.53 243 4640.49 158.04"/></svg>